<svg id="svg" version="1.1" xmlns="http://www.w3.org/2000/svg" xmlns:xlink="http://www.w3.org/1999/xlink" width="400" height="400" viewBox="0, 0, 400,400"><g id="svgg"><path id="path0" d="M0.000 200.000 L 0.000 400.000 200.000 400.000 L 400.000 400.000 400.000 200.000 L 400.000 0.000 200.000 0.000 L 0.000 0.000 0.000 200.000 M155.273 75.917 C 163.370 78.550,169.478 84.489,172.130 92.308 C 173.625 96.715,173.643 97.789,173.580 179.688 C 173.522 254.429,173.423 251.143,175.803 253.294 C 179.022 256.202,176.398 256.049,224.219 256.099 C 272.755 256.149,271.606 256.074,277.835 259.587 C 286.508 264.477,290.234 271.866,290.234 284.172 C 290.234 297.096,285.746 305.357,276.172 310.050 C 269.953 313.099,274.540 312.929,201.953 312.805 L 137.305 312.695 134.310 311.673 C 127.183 309.240,121.802 304.772,118.840 298.828 C 115.523 292.172,115.820 302.539,115.820 193.555 L 115.820 96.680 116.730 93.750 C 119.935 83.423,127.846 76.553,138.477 74.864 C 142.148 74.281,152.175 74.910,155.273 75.917 " stroke="none" fill="#ecfbee" fill-rule="evenodd"></path><path id="path1" d="M138.250 74.998 C 125.637 77.010,117.203 86.330,115.982 99.606 C 115.599 103.767,115.629 201.407,116.022 232.617 L 116.224 248.633 116.315 234.798 C 116.365 227.189,116.500 221.058,116.616 221.173 C 116.731 221.288,116.837 222.397,116.852 223.636 C 116.869 225.055,117.003 225.690,117.213 225.349 C 117.494 224.894,117.627 224.902,118.051 225.397 C 118.328 225.721,118.510 225.910,118.456 225.818 C 118.402 225.725,118.666 225.287,119.042 224.843 C 119.693 224.077,119.693 224.063,119.043 224.566 C 118.667 224.857,118.346 225.030,118.329 224.950 C 118.032 223.504,118.068 223.372,118.706 223.539 C 119.226 223.675,119.379 223.479,119.360 222.698 C 119.328 221.398,118.826 220.617,118.235 220.949 C 117.883 221.147,117.884 221.089,118.237 220.707 C 118.740 220.163,119.560 220.702,120.024 221.882 C 120.203 222.338,120.257 222.316,120.282 221.777 C 120.299 221.401,120.556 221.094,120.853 221.094 C 121.150 221.094,121.493 220.698,121.615 220.215 C 121.820 219.399,121.798 219.387,121.307 220.043 C 121.016 220.432,120.694 220.608,120.591 220.434 C 120.487 220.260,120.881 219.652,121.465 219.083 C 122.141 218.423,122.526 218.246,122.526 218.594 C 122.526 218.895,122.373 219.141,122.187 219.141 C 122.000 219.141,122.067 219.536,122.335 220.020 C 122.603 220.503,122.790 221.014,122.752 221.154 C 122.713 221.295,122.903 221.495,123.174 221.600 C 123.504 221.726,123.646 221.446,123.603 220.758 C 123.567 220.191,123.502 219.727,123.458 219.727 C 123.414 219.727,123.317 219.409,123.244 219.021 C 123.139 218.473,123.226 218.412,123.629 218.747 C 123.961 219.022,124.235 219.040,124.386 218.796 C 124.516 218.585,124.242 218.146,123.776 217.820 C 122.937 217.233,122.937 217.228,123.743 217.288 C 124.190 217.322,124.477 217.477,124.381 217.632 C 124.285 217.788,124.385 218.025,124.603 218.160 C 124.821 218.295,125.000 218.209,125.000 217.969 C 125.000 217.729,125.156 217.628,125.346 217.746 C 125.784 218.017,126.701 216.947,126.421 216.493 C 126.306 216.307,126.538 215.876,126.937 215.534 C 127.607 214.961,127.677 214.973,127.867 215.699 C 128.001 216.213,128.244 216.379,128.568 216.179 C 128.943 215.947,128.949 215.835,128.594 215.716 C 128.336 215.630,128.125 215.388,128.125 215.179 C 128.125 214.969,128.301 214.906,128.516 215.039 C 128.730 215.172,128.906 215.006,128.906 214.671 C 128.906 213.952,129.354 213.885,129.979 214.510 C 130.315 214.846,130.386 214.643,130.266 213.692 C 130.137 212.675,130.224 212.473,130.710 212.659 C 131.042 212.786,131.462 212.891,131.644 212.891 C 131.825 212.891,132.054 213.198,132.153 213.574 C 132.323 214.225,132.333 214.225,132.377 213.574 C 132.401 213.198,132.579 212.891,132.771 212.891 C 132.963 212.891,133.230 212.602,133.366 212.249 C 133.565 211.729,133.506 211.696,133.052 212.073 C 132.706 212.360,132.402 212.393,132.258 212.160 C 132.017 211.771,133.725 211.277,134.766 211.435 C 135.088 211.484,135.383 211.355,135.420 211.148 C 135.458 210.942,135.810 210.646,136.202 210.492 C 136.813 210.251,136.786 210.207,136.012 210.184 C 135.454 210.167,135.213 209.991,135.379 209.722 C 135.526 209.483,135.440 209.160,135.188 209.004 C 134.859 208.800,134.921 208.564,135.408 208.169 C 135.782 207.865,135.963 207.825,135.811 208.078 C 135.659 208.332,135.716 208.652,135.938 208.789 C 136.159 208.926,136.237 209.246,136.109 209.500 C 135.982 209.753,136.199 209.609,136.591 209.180 C 136.984 208.750,137.656 208.398,138.086 208.398 C 138.528 208.398,138.821 208.174,138.760 207.881 C 138.701 207.597,138.818 207.466,139.019 207.591 C 139.221 207.715,139.475 207.597,139.584 207.327 C 139.709 207.017,139.793 207.075,139.813 207.485 C 139.849 208.241,141.082 208.198,141.338 207.431 C 141.451 207.094,141.326 207.026,140.969 207.229 C 140.549 207.468,140.531 207.427,140.887 207.041 C 141.139 206.768,141.300 206.347,141.244 206.105 C 141.189 205.862,141.217 205.796,141.308 205.957 C 141.398 206.118,141.662 206.250,141.895 206.250 C 142.127 206.250,142.202 206.134,142.060 205.992 C 141.918 205.850,142.185 205.466,142.654 205.137 C 143.275 204.702,143.548 204.667,143.661 205.007 C 143.747 205.264,143.977 205.374,144.174 205.253 C 144.370 205.131,144.531 205.316,144.531 205.664 C 144.531 206.042,144.350 206.184,144.080 206.017 C 143.782 205.833,143.736 205.912,143.945 206.249 C 144.195 206.654,144.356 206.627,144.727 206.120 C 144.984 205.768,145.337 205.610,145.511 205.768 C 145.686 205.926,145.714 205.855,145.575 205.611 C 145.435 205.366,145.583 204.949,145.903 204.684 C 146.223 204.418,146.484 203.969,146.484 203.686 C 146.484 203.380,146.803 203.231,147.266 203.320 C 147.695 203.403,148.047 203.322,148.047 203.139 C 148.047 202.957,148.426 202.907,148.889 203.028 C 149.352 203.149,149.637 203.089,149.521 202.894 C 149.111 202.202,149.939 200.782,150.604 201.037 C 151.112 201.232,151.134 201.346,150.716 201.611 C 150.317 201.864,150.355 201.943,150.879 201.947 C 151.255 201.950,151.563 201.671,151.563 201.325 C 151.563 200.973,151.784 200.783,152.067 200.891 C 152.345 200.998,152.916 200.820,153.337 200.496 C 154.049 199.947,153.998 199.922,152.598 200.130 L 151.094 200.354 152.004 199.566 C 152.526 199.112,152.972 198.954,153.051 199.193 C 153.207 199.661,153.932 199.772,153.860 199.316 C 153.741 198.564,153.953 198.381,154.457 198.799 C 154.879 199.150,155.077 199.147,155.299 198.787 C 155.483 198.489,155.424 198.419,155.138 198.596 C 154.871 198.761,154.688 198.626,154.688 198.265 C 154.688 197.930,154.907 197.700,155.176 197.754 C 155.449 197.808,155.613 197.550,155.549 197.168 C 155.412 196.348,156.076 196.250,156.382 197.045 C 156.500 197.353,156.387 197.681,156.130 197.773 C 155.874 197.865,155.792 198.077,155.948 198.244 C 156.428 198.760,157.457 197.601,157.210 196.822 C 157.038 196.280,157.133 196.157,157.592 196.333 C 158.002 196.491,158.203 196.345,158.203 195.889 C 158.203 195.334,158.447 195.250,159.547 195.428 C 160.604 195.600,160.846 195.528,160.679 195.092 C 160.562 194.787,160.737 194.434,161.068 194.307 C 161.424 194.170,161.573 193.824,161.432 193.458 C 161.276 193.049,161.350 192.936,161.652 193.123 C 161.904 193.278,162.109 193.209,162.109 192.969 C 162.109 192.729,162.283 192.639,162.496 192.771 C 162.731 192.916,162.619 193.410,162.211 194.033 L 161.541 195.057 162.583 194.374 C 163.164 193.993,163.535 193.458,163.422 193.163 C 163.276 192.783,163.474 192.691,164.129 192.836 C 164.855 192.996,164.920 192.952,164.453 192.618 C 163.935 192.248,164.145 192.025,164.912 192.131 C 165.057 192.151,165.111 191.660,165.032 191.039 C 164.948 190.377,165.092 189.832,165.379 189.722 C 165.721 189.591,165.820 189.867,165.707 190.637 C 165.536 191.801,166.750 192.134,167.119 191.025 C 167.213 190.745,167.107 190.629,166.884 190.766 C 166.638 190.918,166.555 190.725,166.674 190.273 C 166.875 189.503,168.088 189.397,169.178 190.054 C 169.611 190.315,169.634 190.266,169.287 189.821 C 169.023 189.484,168.973 188.944,169.161 188.477 C 169.429 187.813,169.480 187.798,169.504 188.379 C 169.519 188.755,169.789 189.063,170.105 189.063 C 170.436 189.063,170.590 188.831,170.469 188.516 C 170.354 188.216,170.450 187.852,170.683 187.708 C 170.916 187.564,171.024 187.313,170.924 187.151 C 170.824 186.989,171.129 186.869,171.601 186.885 C 172.390 186.912,172.477 186.689,172.656 184.180 C 172.764 182.676,172.943 188.037,173.054 196.094 C 173.165 204.150,173.297 185.489,173.347 154.624 C 173.448 91.804,173.587 95.176,170.658 89.110 C 165.535 78.498,152.338 72.751,138.250 74.998 M171.708 187.484 C 170.993 187.741,170.991 187.768,171.667 188.027 C 172.443 188.325,172.816 188.145,172.599 187.577 C 172.523 187.377,172.122 187.336,171.708 187.484 M139.063 208.791 C 139.063 209.074,139.321 209.268,139.637 209.222 C 140.592 209.081,140.705 208.706,139.859 208.485 C 139.355 208.353,139.063 208.465,139.063 208.791 M126.758 217.969 C 126.625 218.184,126.194 218.359,125.800 218.359 C 124.977 218.359,124.405 219.483,124.951 220.029 C 125.180 220.258,125.295 220.126,125.257 219.680 C 125.223 219.286,125.415 218.938,125.684 218.906 C 125.952 218.874,126.329 218.826,126.521 218.799 C 126.713 218.772,126.971 218.486,127.094 218.164 C 127.348 217.503,127.126 217.374,126.758 217.969 " stroke="none" fill="#5ec0bb" fill-rule="evenodd"></path><path id="path2" d="M215.234 256.254 C 198.799 256.363,186.230 256.513,187.305 256.586 C 188.379 256.660,189.873 256.686,190.625 256.644 C 191.377 256.602,191.852 256.710,191.680 256.884 C 191.509 257.057,190.718 257.228,189.922 257.263 C 187.764 257.357,187.899 257.221,188.251 258.935 C 188.268 259.015,188.589 258.839,188.965 258.544 C 189.583 258.059,189.598 258.072,189.116 258.687 C 188.823 259.061,188.430 259.271,188.241 259.155 C 188.053 259.039,187.993 259.188,188.108 259.487 C 188.351 260.119,187.348 261.082,186.680 260.859 C 186.369 260.756,186.427 260.504,186.862 260.069 C 187.818 259.113,187.631 258.850,186.564 259.650 C 186.049 260.036,185.720 260.503,185.832 260.688 C 185.945 260.873,185.805 261.168,185.521 261.344 C 185.105 261.601,185.098 261.866,185.485 262.717 C 185.929 263.690,185.905 263.754,185.171 263.562 C 184.733 263.448,184.275 263.518,184.151 263.718 C 184.027 263.918,184.098 264.034,184.307 263.975 C 184.516 263.915,184.694 264.043,184.701 264.258 C 184.708 264.473,184.462 264.597,184.154 264.534 C 183.366 264.372,183.454 265.621,184.277 266.287 C 184.900 266.791,184.887 266.804,184.123 266.436 C 183.486 266.129,183.170 266.170,182.806 266.610 C 182.542 266.928,182.040 267.190,181.690 267.193 C 181.137 267.199,181.131 267.249,181.641 267.578 C 182.066 267.853,182.087 267.958,181.715 267.963 C 181.411 267.966,181.323 268.166,181.497 268.457 C 181.667 268.740,181.484 268.698,181.062 268.359 C 180.388 267.817,180.350 267.839,180.560 268.652 C 180.742 269.361,180.623 269.532,179.944 269.537 C 179.272 269.542,179.218 269.617,179.676 269.907 C 180.262 270.277,179.964 270.898,179.199 270.898 C 178.966 270.898,178.695 271.143,178.595 271.441 C 178.471 271.814,178.583 271.884,178.953 271.667 C 179.253 271.491,179.189 271.697,178.808 272.133 C 178.431 272.563,178.256 273.061,178.417 273.239 C 178.579 273.417,178.488 273.435,178.216 273.278 C 177.944 273.121,177.825 272.825,177.952 272.620 C 178.079 272.414,177.950 272.295,177.666 272.354 C 176.970 272.498,176.428 273.894,176.944 274.213 C 177.185 274.362,176.951 274.810,176.367 275.318 C 175.293 276.251,174.795 276.428,175.233 275.721 C 175.401 275.448,175.340 275.376,175.077 275.538 C 174.839 275.686,174.754 276.095,174.890 276.448 C 175.076 276.932,174.974 277.027,174.473 276.834 C 173.897 276.614,173.870 276.694,174.267 277.450 C 174.723 278.320,174.723 278.320,173.868 277.561 C 173.060 276.843,173.029 276.842,173.292 277.527 C 173.499 278.068,173.439 278.172,173.056 277.936 C 172.667 277.695,172.598 277.845,172.772 278.555 C 172.911 279.125,172.760 279.798,172.385 280.273 C 171.929 280.853,171.828 280.886,171.995 280.400 C 172.123 280.026,171.935 279.523,171.559 279.228 C 170.965 278.763,170.953 278.780,171.435 279.395 C 171.922 280.017,171.783 280.249,170.996 280.124 C 170.835 280.099,170.703 280.254,170.703 280.469 C 170.703 280.684,170.900 280.859,171.142 280.859 C 171.439 280.859,171.418 281.054,171.078 281.464 C 170.803 281.796,170.473 281.928,170.347 281.757 C 170.221 281.585,169.868 281.391,169.563 281.326 C 169.096 281.225,169.091 281.306,169.531 281.836 C 169.971 282.366,169.966 282.447,169.500 282.346 C 169.173 282.276,168.945 282.533,168.943 282.971 C 168.942 283.380,168.635 283.760,168.260 283.815 C 167.885 283.870,167.578 283.761,167.578 283.571 C 167.578 283.382,167.283 283.341,166.923 283.479 C 166.331 283.706,166.337 283.755,166.992 283.984 C 167.390 284.124,167.778 284.705,167.855 285.276 C 167.963 286.085,167.860 286.262,167.384 286.079 C 166.981 285.925,166.850 285.561,166.999 285.012 C 167.199 284.276,167.175 284.259,166.794 284.866 C 166.558 285.244,166.465 285.717,166.589 285.918 C 166.713 286.118,166.327 286.249,165.732 286.208 C 164.789 286.143,164.650 286.272,164.664 287.207 C 164.675 287.992,164.487 288.281,163.966 288.281 C 163.362 288.281,163.318 288.148,163.680 287.402 C 164.089 286.558,164.081 286.554,163.498 287.282 C 162.901 288.027,162.737 288.685,162.861 289.844 C 162.902 290.234,162.820 290.283,162.614 289.991 C 162.309 289.558,160.547 289.941,160.547 290.440 C 160.547 290.567,160.712 290.569,160.914 290.444 C 161.116 290.320,161.256 290.554,161.225 290.964 C 161.193 291.390,160.957 291.630,160.678 291.523 C 160.351 291.397,160.242 291.618,160.351 292.186 C 160.484 292.874,160.412 292.952,159.976 292.591 C 159.540 292.229,159.477 292.297,159.647 292.946 C 159.770 293.417,159.669 293.750,159.403 293.750 C 159.154 293.750,159.002 294.038,159.065 294.389 C 159.135 294.777,158.875 295.076,158.406 295.149 C 157.980 295.216,157.570 295.455,157.494 295.682 C 157.419 295.908,157.118 296.094,156.826 296.094 C 156.505 296.094,156.354 296.403,156.445 296.875 C 156.540 297.365,156.386 297.656,156.032 297.656 C 155.722 297.656,155.469 297.832,155.469 298.047 C 155.469 298.262,155.193 298.438,154.856 298.438 C 154.422 298.438,154.316 298.664,154.492 299.219 C 154.798 300.181,154.417 300.214,153.351 299.316 C 152.551 298.643,152.549 298.645,153.223 299.445 C 153.997 300.364,154.092 301.011,153.506 301.373 C 153.286 301.509,153.131 301.476,153.162 301.299 C 153.457 299.597,152.551 299.840,152.209 301.554 C 151.975 302.721,150.995 303.180,150.690 302.266 C 150.592 301.973,150.439 302.046,150.279 302.461 C 150.116 302.886,150.216 303.125,150.556 303.125 C 151.204 303.125,151.672 304.183,151.163 304.498 C 150.962 304.622,150.398 304.530,149.910 304.293 C 149.060 303.881,149.055 303.888,149.782 304.471 C 150.209 304.813,150.327 305.078,150.052 305.078 C 149.783 305.078,149.661 305.235,149.779 305.428 C 149.898 305.620,149.742 305.875,149.432 305.994 C 149.080 306.129,148.940 306.022,149.061 305.708 C 149.186 305.382,148.947 305.229,148.379 305.271 C 147.426 305.341,146.982 306.029,147.631 306.430 C 147.881 306.585,147.950 306.410,147.810 305.977 C 147.620 305.389,147.652 305.369,148.004 305.859 C 148.537 306.600,148.572 308.332,148.047 308.008 C 147.832 307.875,147.656 307.953,147.656 308.180 C 147.656 308.408,147.486 308.594,147.278 308.594 C 147.070 308.594,146.998 308.286,147.119 307.910 C 147.305 307.333,147.274 307.318,146.918 307.813 C 146.419 308.505,146.343 309.509,146.810 309.220 C 146.989 309.109,147.135 309.272,147.135 309.581 C 147.135 309.976,146.995 310.027,146.665 309.754 C 146.340 309.483,145.919 309.587,145.300 310.088 C 144.683 310.587,144.547 310.901,144.861 311.095 C 145.119 311.255,145.420 311.111,145.552 310.767 C 145.681 310.431,145.928 310.156,146.101 310.156 C 146.581 310.156,146.284 311.460,145.764 311.633 C 145.513 311.717,145.389 311.917,145.488 312.078 C 145.588 312.238,145.423 312.370,145.122 312.370 C 144.821 312.370,144.593 312.267,144.615 312.142 C 144.754 311.355,144.036 310.613,143.561 311.053 C 142.975 311.594,143.201 312.253,143.837 311.860 C 144.096 311.700,144.149 311.781,143.973 312.065 C 143.814 312.322,143.347 312.425,142.936 312.294 C 142.518 312.161,142.188 312.241,142.188 312.474 C 142.188 313.227,266.087 313.041,269.841 312.282 C 279.161 310.397,286.822 303.149,289.426 293.751 C 291.203 287.339,290.469 275.911,287.932 270.508 C 282.623 259.200,273.982 255.601,252.930 255.932 C 248.633 255.999,231.670 256.144,215.234 256.254 M166.045 286.826 C 165.997 287.293,165.461 287.203,165.293 286.699 C 165.207 286.441,165.348 286.301,165.605 286.387 C 165.863 286.473,166.061 286.670,166.045 286.826 M158.197 293.761 C 157.964 294.197,157.579 294.433,157.342 294.287 C 157.091 294.131,157.020 294.198,157.174 294.446 C 157.657 295.227,158.789 294.823,158.789 293.870 C 158.789 292.768,158.734 292.758,158.197 293.761 M150.285 306.677 C 149.904 306.898,149.710 307.288,149.854 307.544 C 150.053 307.897,149.998 307.900,149.623 307.554 C 149.018 306.996,149.421 306.246,150.316 306.262 C 150.917 306.273,150.914 306.310,150.285 306.677 " stroke="none" fill="#d2998e" fill-rule="evenodd"></path><path id="path3" d="M173.132 223.949 C 173.077 227.685,172.909 229.648,172.656 229.492 C 172.441 229.359,172.266 229.483,172.266 229.766 C 172.266 230.221,170.829 231.398,170.313 231.367 C 170.205 231.360,169.885 231.686,169.602 232.090 C 169.319 232.495,168.923 232.724,168.723 232.601 C 168.238 232.301,168.262 233.053,168.772 234.108 C 169.144 234.878,169.130 234.895,168.635 234.283 C 168.334 233.911,167.985 233.708,167.861 233.832 C 167.736 233.956,167.723 233.495,167.832 232.808 C 167.965 231.963,167.890 231.643,167.602 231.821 C 167.367 231.966,167.277 232.250,167.401 232.452 C 167.526 232.653,167.348 232.925,167.007 233.056 C 166.495 233.253,166.474 233.401,166.885 233.903 C 167.233 234.329,167.037 234.286,166.230 233.761 C 165.209 233.096,165.106 233.086,165.331 233.673 C 165.513 234.147,165.425 234.274,165.021 234.119 C 164.711 234.000,164.556 233.744,164.676 233.550 C 164.795 233.356,164.438 233.405,163.881 233.659 C 163.324 233.912,163.005 234.221,163.173 234.345 C 163.862 234.856,163.521 235.742,162.636 235.742 C 162.131 235.742,161.719 235.610,161.719 235.449 C 161.719 235.288,161.543 235.156,161.328 235.156 C 161.113 235.156,160.938 235.502,160.938 235.925 C 160.938 236.487,161.122 236.631,161.621 236.459 C 162.173 236.268,162.155 236.339,161.526 236.828 C 160.731 237.446,159.946 236.985,160.438 236.189 C 160.564 235.984,160.462 235.944,160.210 236.099 C 159.959 236.255,159.854 236.546,159.978 236.746 C 160.209 237.120,159.516 237.244,157.813 237.131 L 156.836 237.067 157.913 237.801 C 158.506 238.205,158.872 238.654,158.727 238.799 C 158.275 239.251,157.813 239.088,157.813 238.477 C 157.813 238.145,157.463 237.891,157.008 237.891 C 156.563 237.891,156.313 238.068,156.449 238.288 C 156.584 238.506,156.885 238.567,157.119 238.423 C 157.362 238.272,157.431 238.341,157.281 238.585 C 157.136 238.818,157.204 239.123,157.431 239.264 C 157.658 239.404,157.730 239.878,157.591 240.316 C 157.401 240.916,157.470 241.039,157.868 240.812 C 158.303 240.565,158.302 240.609,157.861 241.056 C 157.444 241.480,157.284 241.492,157.144 241.111 C 157.045 240.841,156.760 240.722,156.510 240.847 C 156.259 240.972,156.406 240.779,156.836 240.418 C 157.611 239.768,157.610 239.765,156.767 240.016 C 156.174 240.192,155.796 240.057,155.515 239.568 C 155.212 239.040,155.163 239.298,155.317 240.618 C 155.429 241.581,155.394 242.243,155.240 242.089 C 155.086 241.935,154.732 242.114,154.453 242.487 C 153.994 243.099,153.966 243.080,154.167 242.285 C 154.288 241.802,154.587 241.404,154.831 241.400 C 155.074 241.397,155.010 241.224,154.688 241.016 C 154.262 240.740,154.241 240.635,154.613 240.631 C 154.894 240.628,155.004 240.430,154.857 240.193 C 154.669 239.889,154.496 239.913,154.274 240.272 C 154.100 240.553,154.044 240.923,154.150 241.095 C 154.256 241.266,154.157 241.406,153.929 241.406 C 153.702 241.406,153.516 241.689,153.516 242.034 C 153.516 242.446,153.303 242.580,152.898 242.425 C 152.558 242.294,152.108 242.188,151.898 242.188 C 151.688 242.188,151.616 242.027,151.737 241.830 C 151.859 241.634,151.737 241.372,151.467 241.248 C 151.197 241.124,151.372 241.121,151.855 241.241 C 152.474 241.394,152.734 241.285,152.734 240.871 C 152.734 240.524,152.414 240.307,151.953 240.342 C 151.238 240.396,151.003 240.726,151.126 241.504 C 151.151 241.665,150.986 241.797,150.758 241.797 C 150.531 241.797,150.456 241.977,150.592 242.197 C 150.728 242.417,150.631 242.549,150.375 242.490 C 150.120 242.431,149.847 242.761,149.769 243.223 C 149.651 243.915,149.779 244.030,150.497 243.873 C 151.198 243.719,151.253 243.764,150.781 244.101 C 149.829 244.781,149.105 244.619,149.325 243.775 C 149.544 242.939,148.626 242.347,148.194 243.046 C 148.024 243.322,148.106 243.369,148.419 243.175 C 148.778 242.954,148.844 243.086,148.661 243.660 C 148.502 244.162,148.662 244.700,149.101 245.139 C 149.605 245.643,149.635 245.773,149.212 245.622 C 148.893 245.508,148.358 245.652,148.023 245.943 C 147.575 246.332,147.079 246.376,146.156 246.112 C 145.238 245.848,144.913 245.876,144.953 246.215 C 145.055 247.098,144.433 248.520,144.147 248.057 C 143.977 247.783,143.458 247.715,142.797 247.881 C 142.116 248.051,141.893 248.256,142.188 248.438 C 142.485 248.621,142.287 248.816,141.639 248.979 C 141.081 249.119,140.625 249.406,140.625 249.617 C 140.625 249.828,140.229 250.020,139.746 250.045 C 139.041 250.082,139.008 250.127,139.579 250.275 C 140.019 250.389,140.206 250.682,140.068 251.043 C 139.945 251.364,139.837 251.832,139.828 252.083 C 139.820 252.334,139.550 252.056,139.230 251.465 C 138.909 250.874,138.554 250.391,138.441 250.391 C 138.328 250.391,138.344 250.566,138.477 250.781 C 138.609 250.996,138.356 251.172,137.914 251.172 C 137.471 251.172,137.109 251.327,137.109 251.517 C 137.109 252.043,135.252 252.283,134.786 251.817 C 134.499 251.530,134.375 251.613,134.375 252.093 C 134.375 252.471,134.552 252.671,134.768 252.537 C 135.375 252.162,135.695 253.452,135.156 254.102 C 134.771 254.566,134.800 254.725,135.305 254.919 C 135.651 255.052,135.829 255.328,135.702 255.533 C 135.276 256.223,134.416 254.559,134.815 253.814 C 135.096 253.290,135.035 253.125,134.561 253.125 C 134.218 253.125,134.035 253.281,134.152 253.471 C 134.270 253.662,134.071 254.057,133.710 254.350 C 133.330 254.658,133.170 254.688,133.330 254.422 C 133.482 254.168,133.384 253.832,133.112 253.675 C 132.840 253.519,132.747 253.534,132.907 253.710 C 133.066 253.886,132.978 254.299,132.711 254.629 C 132.372 255.048,132.365 255.145,132.688 254.951 C 133.348 254.556,133.778 255.448,133.190 255.991 C 132.813 256.339,132.762 256.331,132.974 255.957 C 133.125 255.688,133.098 255.469,132.914 255.469 C 132.729 255.469,132.341 255.688,132.052 255.957 C 131.628 256.351,131.584 256.343,131.826 255.918 C 132.068 255.492,131.967 255.476,131.297 255.834 C 130.842 256.078,130.469 256.370,130.469 256.482 C 130.469 256.595,130.601 256.605,130.762 256.506 C 130.923 256.406,131.076 256.791,131.103 257.362 C 131.129 257.932,131.071 258.178,130.972 257.908 C 130.873 257.638,130.605 257.533,130.375 257.675 C 130.116 257.835,130.073 257.747,130.261 257.442 C 130.428 257.171,130.104 257.252,129.540 257.622 C 128.596 258.240,128.020 258.946,128.906 258.398 C 129.121 258.266,129.297 258.343,129.297 258.571 C 129.297 258.798,129.121 258.984,128.906 258.984 C 128.691 258.984,128.516 259.171,128.516 259.398 C 128.516 259.626,128.691 259.703,128.906 259.570 C 129.121 259.438,129.297 259.536,129.297 259.788 C 129.297 260.063,128.918 260.175,128.354 260.067 C 127.602 259.923,127.440 260.032,127.551 260.608 C 127.653 261.137,127.463 261.320,126.833 261.297 C 126.362 261.280,126.196 261.178,126.465 261.069 C 127.060 260.829,127.090 259.780,126.525 258.984 C 126.202 258.530,126.159 258.630,126.333 259.432 C 126.487 260.144,126.375 260.535,125.974 260.689 C 125.653 260.812,125.385 261.226,125.379 261.609 C 125.367 262.268,125.346 262.269,124.969 261.621 C 124.750 261.245,124.399 260.938,124.190 260.938 C 123.981 260.938,124.084 261.355,124.418 261.865 C 125.222 263.092,125.446 264.373,124.914 264.701 C 124.631 264.876,124.564 264.671,124.715 264.093 C 124.881 263.458,124.798 263.275,124.411 263.424 C 124.118 263.536,123.793 263.418,123.689 263.162 C 123.565 262.857,123.488 262.846,123.468 263.129 C 123.451 263.372,123.027 263.485,122.507 263.386 C 121.995 263.288,121.480 263.364,121.362 263.554 C 121.244 263.744,121.516 263.928,121.966 263.962 C 122.416 263.996,123.063 264.321,123.404 264.684 C 123.972 265.290,123.966 265.325,123.340 265.107 C 122.868 264.942,122.656 265.069,122.656 265.516 C 122.656 266.050,122.518 266.014,121.860 265.308 C 121.018 264.405,119.922 264.162,119.922 264.879 C 119.922 265.777,118.226 266.727,117.270 266.363 C 115.988 265.876,116.010 265.856,116.067 267.480 L 116.118 268.945 116.363 267.578 C 116.521 266.689,116.716 266.382,116.920 266.699 C 117.093 266.968,117.575 267.188,117.992 267.188 C 118.829 267.188,119.004 267.766,118.299 268.201 C 117.993 268.391,117.954 268.304,118.179 267.931 C 118.450 267.482,118.401 267.470,117.910 267.868 C 117.581 268.134,117.195 268.237,117.054 268.096 C 116.913 267.954,116.797 268.044,116.797 268.294 C 116.797 268.545,117.055 268.750,117.371 268.750 C 117.722 268.750,117.856 268.979,117.717 269.341 C 117.593 269.666,117.722 270.237,118.004 270.610 C 118.429 271.173,118.428 271.211,118.000 270.831 C 117.716 270.580,117.241 270.467,116.945 270.580 C 116.620 270.705,116.406 270.528,116.406 270.136 C 116.406 269.743,116.585 269.596,116.857 269.764 C 117.148 269.944,117.202 269.870,117.008 269.558 C 115.142 266.538,115.362 289.469,117.253 295.106 C 120.311 304.222,129.791 312.010,138.120 312.247 C 139.237 312.279,140.072 312.437,139.974 312.598 C 139.877 312.759,140.335 312.891,140.993 312.891 C 141.650 312.891,142.188 312.703,142.188 312.474 C 142.188 312.241,142.518 312.161,142.936 312.294 C 143.347 312.425,143.814 312.322,143.973 312.065 C 144.149 311.781,144.096 311.700,143.837 311.860 C 143.201 312.253,142.975 311.594,143.561 311.053 C 144.036 310.613,144.754 311.355,144.615 312.142 C 144.593 312.267,144.821 312.370,145.122 312.370 C 145.423 312.370,145.588 312.238,145.488 312.078 C 145.389 311.917,145.513 311.717,145.764 311.633 C 146.284 311.460,146.581 310.156,146.101 310.156 C 145.928 310.156,145.681 310.431,145.552 310.767 C 145.420 311.111,145.119 311.255,144.861 311.095 C 144.547 310.901,144.683 310.587,145.300 310.088 C 145.919 309.587,146.340 309.483,146.665 309.754 C 146.995 310.027,147.135 309.976,147.135 309.581 C 147.135 309.272,146.989 309.109,146.810 309.220 C 146.343 309.509,146.419 308.505,146.918 307.813 C 147.274 307.318,147.305 307.333,147.119 307.910 C 146.998 308.286,147.070 308.594,147.278 308.594 C 147.486 308.594,147.656 308.408,147.656 308.180 C 147.656 307.953,147.832 307.875,148.047 308.008 C 148.572 308.332,148.537 306.600,148.004 305.859 C 147.652 305.369,147.620 305.389,147.810 305.977 C 147.950 306.410,147.881 306.585,147.631 306.430 C 146.982 306.029,147.426 305.341,148.379 305.271 C 148.947 305.229,149.186 305.382,149.061 305.708 C 148.940 306.022,149.080 306.129,149.432 305.994 C 149.742 305.875,149.898 305.620,149.779 305.428 C 149.661 305.235,149.783 305.078,150.052 305.078 C 150.327 305.078,150.209 304.813,149.782 304.471 C 149.055 303.888,149.060 303.881,149.910 304.293 C 150.398 304.530,150.962 304.622,151.163 304.498 C 151.672 304.183,151.204 303.125,150.556 303.125 C 150.216 303.125,150.116 302.886,150.279 302.461 C 150.439 302.046,150.592 301.973,150.690 302.266 C 150.995 303.180,151.975 302.721,152.209 301.554 C 152.551 299.840,153.457 299.597,153.162 301.299 C 153.131 301.476,153.286 301.509,153.506 301.373 C 154.092 301.011,153.997 300.364,153.223 299.445 C 152.549 298.645,152.551 298.643,153.351 299.316 C 154.417 300.214,154.798 300.181,154.492 299.219 C 154.316 298.664,154.422 298.438,154.856 298.438 C 155.193 298.438,155.469 298.262,155.469 298.047 C 155.469 297.832,155.722 297.656,156.032 297.656 C 156.386 297.656,156.540 297.365,156.445 296.875 C 156.354 296.403,156.505 296.094,156.826 296.094 C 157.118 296.094,157.419 295.908,157.494 295.682 C 157.570 295.455,157.980 295.216,158.406 295.149 C 158.875 295.076,159.135 294.777,159.065 294.389 C 159.002 294.038,159.154 293.750,159.403 293.750 C 159.669 293.750,159.770 293.417,159.647 292.946 C 159.477 292.297,159.540 292.229,159.976 292.591 C 160.412 292.952,160.484 292.874,160.351 292.186 C 160.242 291.618,160.351 291.397,160.678 291.523 C 160.957 291.630,161.193 291.390,161.225 290.964 C 161.256 290.554,161.116 290.320,160.914 290.444 C 160.712 290.569,160.547 290.567,160.547 290.440 C 160.547 289.941,162.309 289.558,162.614 289.991 C 162.820 290.283,162.902 290.234,162.861 289.844 C 162.737 288.685,162.901 288.027,163.498 287.282 C 164.081 286.554,164.089 286.558,163.680 287.402 C 163.318 288.148,163.362 288.281,163.966 288.281 C 164.487 288.281,164.675 287.992,164.664 287.207 C 164.650 286.272,164.789 286.143,165.732 286.208 C 166.327 286.249,166.713 286.118,166.589 285.918 C 166.465 285.717,166.558 285.244,166.794 284.866 C 167.175 284.259,167.199 284.276,166.999 285.012 C 166.850 285.561,166.981 285.925,167.384 286.079 C 167.860 286.262,167.963 286.085,167.855 285.276 C 167.778 284.705,167.390 284.124,166.992 283.984 C 166.337 283.755,166.331 283.706,166.923 283.479 C 167.283 283.341,167.578 283.382,167.578 283.571 C 167.578 283.761,167.885 283.870,168.260 283.815 C 168.635 283.760,168.942 283.380,168.943 282.971 C 168.945 282.533,169.173 282.276,169.500 282.346 C 169.966 282.447,169.971 282.366,169.531 281.836 C 169.091 281.306,169.096 281.225,169.563 281.326 C 169.868 281.391,170.221 281.585,170.347 281.757 C 170.473 281.928,170.803 281.796,171.078 281.464 C 171.418 281.054,171.439 280.859,171.142 280.859 C 170.900 280.859,170.703 280.684,170.703 280.469 C 170.703 280.254,170.835 280.099,170.996 280.124 C 171.783 280.249,171.922 280.017,171.435 279.395 C 170.953 278.780,170.965 278.763,171.559 279.228 C 171.935 279.523,172.123 280.026,171.995 280.400 C 171.828 280.886,171.929 280.853,172.385 280.273 C 172.760 279.798,172.911 279.125,172.772 278.555 C 172.598 277.845,172.667 277.695,173.056 277.936 C 173.439 278.172,173.499 278.068,173.292 277.527 C 173.029 276.842,173.060 276.843,173.868 277.561 C 174.723 278.320,174.723 278.320,174.267 277.450 C 173.870 276.694,173.897 276.614,174.473 276.834 C 174.974 277.027,175.076 276.932,174.890 276.448 C 174.754 276.095,174.839 275.686,175.077 275.538 C 175.340 275.376,175.401 275.448,175.233 275.721 C 174.795 276.428,175.293 276.251,176.367 275.318 C 176.907 274.848,177.179 274.358,176.971 274.230 C 176.762 274.101,176.695 273.599,176.822 273.115 C 177.045 272.262,177.078 272.256,177.882 272.929 C 178.338 273.312,178.579 273.465,178.417 273.270 C 178.256 273.075,178.431 272.563,178.808 272.133 C 179.189 271.697,179.253 271.491,178.953 271.667 C 178.583 271.884,178.471 271.814,178.595 271.441 C 178.695 271.143,178.966 270.898,179.199 270.898 C 179.964 270.898,180.262 270.277,179.676 269.907 C 179.218 269.617,179.272 269.542,179.944 269.537 C 180.623 269.532,180.742 269.361,180.560 268.652 C 180.350 267.839,180.388 267.817,181.062 268.359 C 181.484 268.698,181.667 268.740,181.497 268.457 C 181.323 268.166,181.411 267.966,181.715 267.963 C 182.087 267.958,182.066 267.853,181.641 267.578 C 181.131 267.249,181.137 267.199,181.690 267.193 C 182.040 267.190,182.542 266.928,182.806 266.610 C 183.170 266.170,183.486 266.129,184.123 266.436 C 184.887 266.804,184.900 266.791,184.277 266.287 C 183.494 265.653,183.350 264.363,184.082 264.531 C 184.351 264.593,184.570 264.469,184.570 264.255 C 184.570 264.042,184.425 263.915,184.248 263.975 C 184.071 264.034,184.027 263.918,184.151 263.718 C 184.275 263.518,184.733 263.448,185.171 263.562 C 185.905 263.754,185.929 263.690,185.485 262.717 C 185.098 261.866,185.105 261.601,185.521 261.344 C 185.805 261.168,185.945 260.873,185.832 260.688 C 185.720 260.503,186.049 260.036,186.564 259.650 C 187.631 258.850,187.818 259.113,186.862 260.069 C 186.427 260.504,186.369 260.756,186.680 260.859 C 187.348 261.082,188.351 260.119,188.108 259.487 C 187.993 259.188,188.053 259.039,188.241 259.155 C 188.430 259.271,188.823 259.061,189.116 258.687 C 189.598 258.072,189.583 258.059,188.965 258.544 C 188.589 258.839,188.268 259.015,188.251 258.935 C 187.899 257.221,187.764 257.357,189.922 257.263 C 190.718 257.228,191.509 257.057,191.680 256.884 C 191.852 256.710,191.377 256.602,190.625 256.644 C 187.924 256.794,185.504 256.635,185.699 256.319 C 185.809 256.143,184.814 255.968,183.488 255.932 C 179.328 255.817,175.604 254.023,174.106 251.411 C 173.766 250.818,173.574 246.020,173.425 234.375 C 173.311 225.459,173.179 220.767,173.132 223.949 M172.665 232.216 C 172.414 232.519,171.958 232.670,171.651 232.552 C 171.305 232.419,171.094 232.587,171.094 232.994 C 171.094 233.598,171.044 233.600,170.461 233.017 C 169.677 232.233,169.896 231.991,171.425 231.947 C 172.080 231.929,172.605 231.808,172.590 231.679 C 172.520 231.064,172.740 230.720,172.919 231.165 C 173.030 231.441,172.915 231.914,172.665 232.216 M160.547 233.961 C 160.547 234.638,161.234 234.763,161.722 234.175 C 162.124 233.691,162.066 233.594,161.376 233.594 C 160.920 233.594,160.547 233.759,160.547 233.961 M160.938 237.891 C 161.274 238.108,161.329 238.272,161.067 238.275 C 160.816 238.279,160.355 238.379,160.043 238.499 C 159.731 238.619,159.371 238.443,159.242 238.108 C 158.975 237.411,159.993 237.280,160.938 237.891 M145.910 243.731 C 145.771 243.956,145.901 244.141,146.199 244.141 C 146.503 244.141,146.728 244.509,146.711 244.980 C 146.694 245.442,146.943 245.910,147.266 246.020 C 147.762 246.190,147.772 246.124,147.330 245.588 C 147.043 245.241,146.909 244.793,147.032 244.593 C 147.156 244.393,147.011 244.025,146.710 243.775 C 146.336 243.465,146.083 243.451,145.910 243.731 M133.474 257.883 C 133.241 258.029,132.733 257.979,132.345 257.772 C 131.494 257.316,131.403 256.857,132.227 257.173 C 132.549 257.296,132.813 257.220,132.813 257.004 C 132.813 256.787,133.057 256.836,133.355 257.114 C 133.728 257.459,133.765 257.700,133.474 257.883 M121.413 265.606 C 121.510 265.898,121.405 266.013,121.171 265.868 C 120.944 265.727,120.647 265.791,120.512 266.009 C 120.377 266.228,120.482 266.406,120.745 266.406 C 121.009 266.406,121.132 266.498,121.019 266.611 C 120.433 267.197,119.582 266.314,120.035 265.589 C 120.542 264.777,121.139 264.785,121.413 265.606 M165.293 286.699 C 165.379 286.957,165.577 287.155,165.732 287.139 C 166.199 287.090,166.109 286.555,165.605 286.387 C 165.348 286.301,165.207 286.441,165.293 286.699 M158.789 293.870 C 158.789 294.823,157.657 295.227,157.174 294.446 C 157.020 294.198,157.091 294.131,157.342 294.287 C 157.579 294.433,157.964 294.197,158.197 293.761 C 158.734 292.758,158.789 292.768,158.789 293.870 M149.393 306.675 C 149.249 306.908,149.352 307.304,149.623 307.554 C 149.998 307.900,150.053 307.897,149.854 307.544 C 149.710 307.288,149.904 306.898,150.285 306.677 C 150.914 306.310,150.917 306.273,150.316 306.262 C 149.953 306.255,149.537 306.441,149.393 306.675 " stroke="none" fill="#57756e" fill-rule="evenodd"></path><path id="path4" d="M115.724 100.586 C 115.728 101.445,115.808 101.751,115.901 101.265 C 115.995 100.779,115.991 100.076,115.893 99.702 C 115.796 99.329,115.719 99.727,115.724 100.586 M173.536 136.523 C 173.540 137.383,173.620 137.688,173.714 137.202 C 173.807 136.717,173.804 136.013,173.706 135.640 C 173.608 135.267,173.532 135.664,173.536 136.523 M173.592 143.555 C 173.592 146.563,173.654 147.741,173.728 146.174 C 173.802 144.607,173.802 142.146,173.727 140.706 C 173.652 139.265,173.591 140.547,173.592 143.555 M173.536 157.617 C 173.540 158.477,173.620 158.782,173.714 158.296 C 173.807 157.810,173.804 157.107,173.706 156.734 C 173.608 156.360,173.532 156.758,173.536 157.617 M173.536 160.742 C 173.540 161.602,173.620 161.907,173.714 161.421 C 173.807 160.935,173.804 160.232,173.706 159.859 C 173.608 159.485,173.532 159.883,173.536 160.742 M173.536 163.867 C 173.540 164.727,173.620 165.032,173.714 164.546 C 173.807 164.060,173.804 163.357,173.706 162.984 C 173.608 162.610,173.532 163.008,173.536 163.867 M173.549 174.805 C 173.552 175.879,173.628 176.272,173.718 175.678 C 173.808 175.084,173.805 174.206,173.712 173.725 C 173.620 173.245,173.546 173.730,173.549 174.805 M172.656 184.180 C 172.477 186.689,172.390 186.912,171.601 186.885 C 171.129 186.869,170.824 186.989,170.924 187.151 C 171.024 187.313,170.916 187.564,170.683 187.708 C 170.450 187.852,170.354 188.216,170.469 188.516 C 170.590 188.831,170.436 189.063,170.105 189.063 C 169.789 189.063,169.519 188.755,169.504 188.379 C 169.480 187.798,169.429 187.813,169.161 188.477 C 168.973 188.944,169.023 189.484,169.287 189.821 C 169.634 190.266,169.611 190.315,169.178 190.054 C 168.088 189.397,166.875 189.503,166.674 190.273 C 166.555 190.725,166.638 190.918,166.884 190.766 C 167.107 190.629,167.213 190.745,167.119 191.025 C 166.750 192.134,165.536 191.801,165.707 190.637 C 165.820 189.867,165.721 189.591,165.379 189.722 C 165.092 189.832,164.948 190.377,165.032 191.039 C 165.111 191.660,165.057 192.151,164.912 192.131 C 164.145 192.025,163.935 192.248,164.453 192.618 C 164.920 192.952,164.855 192.996,164.129 192.836 C 163.474 192.691,163.276 192.783,163.422 193.163 C 163.535 193.458,163.164 193.993,162.583 194.374 L 161.541 195.057 162.211 194.033 C 162.619 193.410,162.731 192.916,162.496 192.771 C 162.283 192.639,162.109 192.729,162.109 192.969 C 162.109 193.209,161.904 193.278,161.652 193.123 C 161.350 192.936,161.276 193.049,161.432 193.458 C 161.573 193.824,161.424 194.170,161.068 194.307 C 160.737 194.434,160.562 194.787,160.679 195.092 C 160.846 195.528,160.604 195.600,159.547 195.428 C 158.447 195.250,158.203 195.334,158.203 195.889 C 158.203 196.345,158.002 196.491,157.592 196.333 C 157.133 196.157,157.038 196.280,157.210 196.822 C 157.457 197.601,156.428 198.760,155.948 198.244 C 155.792 198.077,155.874 197.865,156.130 197.773 C 156.387 197.681,156.500 197.353,156.382 197.045 C 156.076 196.250,155.412 196.348,155.549 197.168 C 155.613 197.550,155.449 197.808,155.176 197.754 C 154.907 197.700,154.688 197.930,154.688 198.265 C 154.688 198.626,154.871 198.761,155.138 198.596 C 155.424 198.419,155.483 198.489,155.299 198.787 C 155.077 199.147,154.879 199.150,154.457 198.799 C 153.953 198.381,153.741 198.564,153.860 199.316 C 153.932 199.772,153.207 199.661,153.051 199.193 C 152.972 198.954,152.526 199.112,152.004 199.566 L 151.094 200.354 152.598 200.130 C 153.998 199.922,154.049 199.947,153.337 200.496 C 152.916 200.820,152.345 200.998,152.067 200.891 C 151.784 200.783,151.563 200.973,151.563 201.325 C 151.563 201.671,151.255 201.950,150.879 201.947 C 150.355 201.943,150.317 201.864,150.716 201.611 C 151.134 201.346,151.112 201.232,150.604 201.037 C 149.939 200.782,149.111 202.202,149.521 202.894 C 149.637 203.089,149.352 203.149,148.889 203.028 C 148.426 202.907,148.047 202.957,148.047 203.139 C 148.047 203.322,147.695 203.403,147.266 203.320 C 146.803 203.231,146.484 203.380,146.484 203.686 C 146.484 203.969,146.223 204.418,145.903 204.684 C 145.583 204.949,145.435 205.366,145.575 205.611 C 145.714 205.855,145.686 205.926,145.511 205.768 C 145.337 205.610,144.984 205.768,144.727 206.120 C 144.356 206.627,144.195 206.654,143.945 206.249 C 143.736 205.912,143.782 205.833,144.080 206.017 C 144.350 206.184,144.531 206.042,144.531 205.664 C 144.531 205.316,144.370 205.131,144.174 205.253 C 143.977 205.374,143.747 205.264,143.661 205.007 C 143.548 204.667,143.275 204.702,142.654 205.137 C 142.185 205.466,141.918 205.850,142.060 205.992 C 142.202 206.134,142.127 206.250,141.895 206.250 C 141.662 206.250,141.398 206.118,141.308 205.957 C 141.217 205.796,141.189 205.862,141.244 206.105 C 141.300 206.347,141.139 206.768,140.887 207.041 C 140.531 207.427,140.549 207.468,140.969 207.229 C 141.326 207.026,141.451 207.094,141.338 207.431 C 141.082 208.198,139.849 208.241,139.813 207.485 C 139.793 207.075,139.709 207.017,139.584 207.327 C 139.475 207.597,139.221 207.715,139.019 207.591 C 138.818 207.466,138.701 207.597,138.760 207.881 C 138.821 208.174,138.528 208.398,138.086 208.398 C 137.656 208.398,136.984 208.750,136.591 209.180 C 136.199 209.609,135.982 209.753,136.109 209.500 C 136.237 209.246,136.159 208.926,135.938 208.789 C 135.716 208.652,135.659 208.332,135.811 208.078 C 135.963 207.825,135.782 207.865,135.408 208.169 C 134.921 208.564,134.859 208.800,135.188 209.004 C 135.440 209.160,135.526 209.483,135.379 209.722 C 135.213 209.991,135.454 210.167,136.012 210.184 C 136.786 210.207,136.813 210.251,136.202 210.492 C 135.810 210.646,135.458 210.942,135.420 211.148 C 135.383 211.355,135.088 211.484,134.766 211.435 C 133.725 211.277,132.017 211.771,132.258 212.160 C 132.402 212.393,132.706 212.360,133.052 212.073 C 133.506 211.696,133.565 211.729,133.366 212.249 C 133.230 212.602,132.975 212.891,132.799 212.891 C 132.623 212.891,132.399 213.198,132.301 213.574 C 132.130 214.225,132.120 214.225,132.077 213.574 C 132.052 213.198,131.870 212.891,131.673 212.891 C 131.475 212.891,131.042 212.786,130.710 212.659 C 130.224 212.473,130.137 212.675,130.266 213.692 C 130.386 214.643,130.315 214.846,129.979 214.510 C 129.354 213.885,128.906 213.952,128.906 214.671 C 128.906 215.006,128.730 215.172,128.516 215.039 C 128.301 214.906,128.125 214.969,128.125 215.179 C 128.125 215.388,128.336 215.630,128.594 215.716 C 128.949 215.835,128.943 215.947,128.568 216.179 C 128.244 216.379,128.001 216.213,127.867 215.699 C 127.677 214.973,127.607 214.961,126.937 215.534 C 126.538 215.876,126.306 216.307,126.421 216.493 C 126.701 216.947,125.784 218.017,125.346 217.746 C 125.156 217.628,125.000 217.729,125.000 217.969 C 125.000 218.209,124.821 218.295,124.603 218.160 C 124.385 218.025,124.285 217.788,124.381 217.632 C 124.477 217.477,124.190 217.322,123.743 217.288 C 122.937 217.228,122.937 217.233,123.776 217.820 C 124.242 218.146,124.516 218.585,124.386 218.796 C 124.235 219.040,123.961 219.022,123.629 218.747 C 123.226 218.412,123.139 218.473,123.244 219.021 C 123.317 219.409,123.414 219.727,123.458 219.727 C 123.502 219.727,123.567 220.191,123.603 220.758 C 123.646 221.446,123.504 221.726,123.174 221.600 C 122.903 221.495,122.713 221.295,122.752 221.154 C 122.790 221.014,122.603 220.503,122.335 220.020 C 122.067 219.536,122.000 219.141,122.187 219.141 C 122.373 219.141,122.526 218.895,122.526 218.594 C 122.526 218.246,122.141 218.423,121.465 219.083 C 120.881 219.652,120.487 220.260,120.591 220.434 C 120.694 220.608,121.016 220.432,121.307 220.043 C 121.798 219.387,121.820 219.399,121.615 220.215 C 121.493 220.698,121.150 221.094,120.853 221.094 C 120.556 221.094,120.299 221.401,120.282 221.777 C 120.257 222.316,120.203 222.338,120.024 221.882 C 119.560 220.702,118.740 220.163,118.237 220.707 C 117.884 221.089,117.883 221.147,118.235 220.949 C 118.826 220.617,119.328 221.398,119.360 222.698 C 119.379 223.479,119.226 223.675,118.706 223.539 C 118.068 223.372,118.032 223.504,118.329 224.950 C 118.346 225.030,118.667 224.857,119.043 224.566 C 119.693 224.063,119.693 224.077,119.042 224.843 C 118.666 225.287,118.402 225.725,118.456 225.818 C 118.510 225.910,118.328 225.721,118.051 225.397 C 117.627 224.902,117.494 224.894,117.213 225.349 C 117.003 225.690,116.869 225.055,116.852 223.636 C 116.837 222.397,116.731 221.288,116.616 221.173 C 116.500 221.058,116.365 227.189,116.315 234.798 L 116.224 248.633 116.016 232.617 C 115.856 220.332,115.804 223.517,115.795 246.289 C 115.788 262.617,115.843 274.571,115.917 272.853 C 116.051 269.761,116.429 268.619,117.008 269.558 C 117.202 269.870,117.148 269.944,116.857 269.764 C 116.585 269.596,116.406 269.743,116.406 270.136 C 116.406 270.528,116.620 270.705,116.945 270.580 C 117.241 270.467,117.716 270.580,118.000 270.831 C 118.428 271.211,118.429 271.173,118.004 270.610 C 117.722 270.237,117.593 269.666,117.717 269.341 C 117.856 268.979,117.722 268.750,117.371 268.750 C 117.055 268.750,116.797 268.545,116.797 268.294 C 116.797 268.044,116.913 267.954,117.054 268.096 C 117.195 268.237,117.581 268.134,117.910 267.868 C 118.401 267.470,118.450 267.482,118.179 267.931 C 117.954 268.304,117.993 268.391,118.299 268.201 C 119.004 267.766,118.829 267.188,117.992 267.188 C 117.575 267.188,117.093 266.968,116.920 266.699 C 116.716 266.382,116.521 266.689,116.363 267.578 L 116.118 268.945 116.067 267.480 C 116.010 265.856,115.988 265.876,117.270 266.363 C 118.226 266.727,119.922 265.777,119.922 264.879 C 119.922 264.162,121.018 264.405,121.860 265.308 C 122.518 266.014,122.656 266.050,122.656 265.516 C 122.656 265.069,122.868 264.942,123.340 265.107 C 123.966 265.325,123.972 265.290,123.404 264.684 C 123.063 264.321,122.416 263.996,121.966 263.962 C 121.516 263.928,121.244 263.744,121.362 263.554 C 121.480 263.364,121.989 263.287,122.493 263.383 C 122.998 263.479,123.490 263.364,123.588 263.127 C 123.706 262.842,123.777 262.857,123.797 263.171 C 123.814 263.433,124.079 263.551,124.386 263.433 C 124.801 263.274,124.885 263.442,124.715 264.093 C 124.564 264.671,124.631 264.876,124.914 264.701 C 125.446 264.373,125.222 263.092,124.418 261.865 C 124.084 261.355,123.981 260.938,124.190 260.938 C 124.399 260.938,124.750 261.245,124.969 261.621 C 125.346 262.269,125.367 262.268,125.379 261.609 C 125.385 261.226,125.653 260.812,125.974 260.689 C 126.375 260.535,126.487 260.144,126.333 259.432 C 126.159 258.630,126.202 258.530,126.525 258.984 C 127.090 259.780,127.060 260.829,126.465 261.069 C 126.196 261.178,126.362 261.280,126.833 261.297 C 127.463 261.320,127.653 261.137,127.551 260.608 C 127.440 260.032,127.602 259.923,128.354 260.067 C 128.918 260.175,129.297 260.063,129.297 259.788 C 129.297 259.536,129.121 259.438,128.906 259.570 C 128.691 259.703,128.516 259.626,128.516 259.398 C 128.516 259.171,128.691 258.984,128.906 258.984 C 129.121 258.984,129.297 258.798,129.297 258.571 C 129.297 258.343,129.121 258.266,128.906 258.398 C 128.020 258.946,128.596 258.240,129.540 257.622 C 130.104 257.252,130.428 257.171,130.261 257.442 C 130.073 257.747,130.116 257.835,130.375 257.675 C 130.605 257.533,130.873 257.638,130.972 257.908 C 131.071 258.178,131.129 257.932,131.103 257.362 C 131.076 256.791,130.923 256.406,130.762 256.506 C 130.601 256.605,130.469 256.595,130.469 256.482 C 130.469 256.370,130.842 256.078,131.297 255.834 C 131.967 255.476,132.068 255.492,131.826 255.918 C 131.584 256.343,131.628 256.351,132.052 255.957 C 132.341 255.688,132.729 255.469,132.914 255.469 C 133.098 255.469,133.125 255.688,132.974 255.957 C 132.762 256.331,132.813 256.339,133.190 255.991 C 133.778 255.448,133.348 254.556,132.688 254.951 C 132.365 255.145,132.372 255.048,132.711 254.629 C 132.978 254.299,133.066 253.886,132.907 253.710 C 132.747 253.534,132.840 253.519,133.112 253.675 C 133.384 253.832,133.482 254.168,133.330 254.422 C 133.170 254.688,133.330 254.658,133.710 254.350 C 134.071 254.057,134.270 253.662,134.152 253.471 C 134.035 253.281,134.218 253.125,134.561 253.125 C 135.035 253.125,135.096 253.290,134.815 253.814 C 134.416 254.559,135.276 256.223,135.702 255.533 C 135.829 255.328,135.651 255.052,135.305 254.919 C 134.800 254.725,134.771 254.566,135.156 254.102 C 135.695 253.452,135.375 252.162,134.768 252.537 C 134.552 252.671,134.375 252.471,134.375 252.093 C 134.375 251.613,134.499 251.530,134.786 251.817 C 135.252 252.283,137.109 252.043,137.109 251.517 C 137.109 251.327,137.471 251.172,137.914 251.172 C 138.356 251.172,138.609 250.996,138.477 250.781 C 138.344 250.566,138.328 250.391,138.441 250.391 C 138.554 250.391,138.909 250.874,139.230 251.465 C 139.550 252.056,139.820 252.334,139.828 252.083 C 139.837 251.832,139.945 251.364,140.068 251.043 C 140.206 250.682,140.019 250.389,139.579 250.275 C 139.008 250.127,139.041 250.082,139.746 250.045 C 140.229 250.020,140.625 249.828,140.625 249.617 C 140.625 249.406,141.081 249.119,141.639 248.979 C 142.287 248.816,142.485 248.621,142.188 248.438 C 141.893 248.256,142.116 248.051,142.797 247.881 C 143.458 247.715,143.977 247.783,144.147 248.057 C 144.433 248.520,145.055 247.098,144.953 246.215 C 144.913 245.876,145.238 245.848,146.156 246.112 C 147.079 246.376,147.575 246.332,148.023 245.943 C 148.358 245.652,148.893 245.508,149.212 245.622 C 149.635 245.773,149.605 245.643,149.101 245.139 C 148.662 244.700,148.502 244.162,148.661 243.660 C 148.844 243.086,148.778 242.954,148.419 243.175 C 148.106 243.369,148.024 243.322,148.194 243.046 C 148.626 242.347,149.544 242.939,149.325 243.775 C 149.105 244.619,149.829 244.781,150.781 244.101 C 151.253 243.764,151.198 243.719,150.497 243.873 C 149.779 244.030,149.651 243.915,149.769 243.223 C 149.847 242.761,150.120 242.431,150.375 242.490 C 150.631 242.549,150.728 242.417,150.592 242.197 C 150.456 241.977,150.531 241.797,150.758 241.797 C 150.986 241.797,151.151 241.665,151.126 241.504 C 151.003 240.726,151.238 240.396,151.953 240.342 C 152.414 240.307,152.734 240.524,152.734 240.871 C 152.734 241.285,152.474 241.394,151.855 241.241 C 151.372 241.121,151.197 241.124,151.467 241.248 C 151.737 241.372,151.859 241.634,151.737 241.830 C 151.616 242.027,151.688 242.188,151.898 242.188 C 152.108 242.188,152.558 242.294,152.898 242.425 C 153.303 242.580,153.516 242.446,153.516 242.034 C 153.516 241.689,153.702 241.406,153.929 241.406 C 154.157 241.406,154.256 241.266,154.150 241.095 C 154.044 240.923,154.100 240.553,154.274 240.272 C 154.496 239.913,154.669 239.889,154.857 240.193 C 155.004 240.430,154.894 240.628,154.613 240.631 C 154.241 240.635,154.262 240.740,154.688 241.016 C 155.010 241.224,155.074 241.397,154.831 241.400 C 154.587 241.404,154.288 241.802,154.167 242.285 C 153.966 243.080,153.994 243.099,154.453 242.487 C 154.732 242.114,155.086 241.935,155.240 242.089 C 155.394 242.243,155.429 241.581,155.317 240.618 C 155.163 239.298,155.212 239.040,155.515 239.568 C 155.796 240.057,156.174 240.192,156.767 240.016 C 157.610 239.765,157.611 239.768,156.836 240.418 C 156.406 240.779,156.259 240.972,156.510 240.847 C 156.760 240.722,157.045 240.841,157.144 241.111 C 157.284 241.492,157.444 241.480,157.861 241.056 C 158.302 240.609,158.303 240.565,157.868 240.812 C 157.470 241.039,157.401 240.916,157.591 240.316 C 157.730 239.878,157.658 239.404,157.431 239.264 C 157.204 239.123,157.136 238.818,157.281 238.585 C 157.431 238.341,157.362 238.272,157.119 238.423 C 156.885 238.567,156.584 238.506,156.449 238.288 C 156.313 238.068,156.563 237.891,157.008 237.891 C 157.463 237.891,157.813 238.145,157.813 238.477 C 157.813 239.088,158.275 239.251,158.727 238.799 C 158.872 238.654,158.506 238.205,157.913 237.801 L 156.836 237.067 157.813 237.131 C 159.516 237.244,160.209 237.120,159.978 236.746 C 159.854 236.546,159.959 236.255,160.210 236.099 C 160.462 235.944,160.564 235.984,160.438 236.189 C 159.946 236.985,160.731 237.446,161.526 236.828 C 162.155 236.339,162.173 236.268,161.621 236.459 C 161.122 236.631,160.938 236.487,160.938 235.925 C 160.938 235.502,161.113 235.156,161.328 235.156 C 161.543 235.156,161.719 235.288,161.719 235.449 C 161.719 235.610,162.131 235.742,162.636 235.742 C 163.521 235.742,163.862 234.856,163.173 234.345 C 163.005 234.221,163.324 233.912,163.881 233.659 C 164.438 233.405,164.795 233.356,164.676 233.550 C 164.556 233.744,164.711 234.000,165.021 234.119 C 165.425 234.274,165.513 234.147,165.331 233.673 C 165.106 233.086,165.209 233.096,166.230 233.761 C 167.037 234.286,167.233 234.329,166.885 233.903 C 166.474 233.401,166.495 233.253,167.007 233.056 C 167.348 232.925,167.526 232.653,167.401 232.452 C 167.277 232.250,167.367 231.966,167.602 231.821 C 167.890 231.643,167.965 231.963,167.832 232.808 C 167.723 233.495,167.736 233.956,167.861 233.832 C 167.985 233.708,168.334 233.911,168.635 234.283 C 169.130 234.895,169.144 234.878,168.772 234.108 C 168.262 233.053,168.238 232.301,168.723 232.601 C 168.923 232.724,169.366 232.427,169.707 231.940 C 170.048 231.453,170.368 231.128,170.418 231.217 C 170.607 231.557,172.266 230.255,172.266 229.766 C 172.266 229.483,172.441 229.359,172.656 229.492 C 172.910 229.649,173.047 227.738,173.047 224.046 C 173.047 220.304,173.188 218.359,173.461 218.359 C 173.688 218.359,173.763 218.179,173.626 217.958 C 173.217 217.295,173.161 212.732,173.556 212.207 C 173.796 211.888,173.772 211.719,173.485 211.719 C 173.244 211.719,173.047 211.533,173.047 211.305 C 173.047 211.078,173.223 211.000,173.438 211.133 C 173.652 211.266,173.828 211.188,173.828 210.961 C 173.828 210.733,173.654 210.547,173.442 210.547 C 173.197 210.547,173.019 205.248,172.954 195.996 C 172.898 187.993,172.764 182.676,172.656 184.180 M172.558 188.120 C 172.458 188.219,172.058 188.177,171.667 188.027 C 170.991 187.768,170.993 187.741,171.708 187.484 C 172.393 187.238,172.991 187.686,172.558 188.120 M173.555 191.797 C 173.555 192.979,173.628 193.462,173.717 192.871 C 173.807 192.280,173.807 191.313,173.717 190.723 C 173.628 190.132,173.555 190.615,173.555 191.797 M140.434 208.915 C 139.978 209.371,139.063 209.288,139.063 208.791 C 139.063 208.465,139.355 208.353,139.859 208.485 C 140.297 208.599,140.556 208.793,140.434 208.915 M115.746 213.477 C 115.748 214.766,115.821 215.246,115.908 214.544 C 115.995 213.842,115.993 212.787,115.904 212.200 C 115.815 211.613,115.744 212.188,115.746 213.477 M127.094 218.164 C 126.971 218.486,126.713 218.772,126.521 218.799 C 126.329 218.826,125.952 218.874,125.684 218.906 C 125.415 218.938,125.223 219.286,125.257 219.680 C 125.295 220.126,125.180 220.258,124.951 220.029 C 124.405 219.483,124.977 218.359,125.800 218.359 C 126.194 218.359,126.625 218.184,126.758 217.969 C 127.126 217.374,127.348 217.503,127.094 218.164 M172.641 231.055 C 172.598 231.270,172.576 231.551,172.590 231.679 C 172.605 231.808,172.080 231.929,171.425 231.947 C 169.896 231.991,169.677 232.233,170.461 233.017 C 171.044 233.600,171.094 233.598,171.094 232.994 C 171.094 232.587,171.305 232.419,171.651 232.552 C 172.328 232.812,173.198 231.860,172.919 231.165 C 172.809 230.890,172.683 230.840,172.641 231.055 M161.722 234.175 C 161.234 234.763,160.547 234.638,160.547 233.961 C 160.547 233.759,160.920 233.594,161.376 233.594 C 162.066 233.594,162.124 233.691,161.722 234.175 M159.242 238.108 C 159.371 238.443,159.731 238.619,160.043 238.499 C 160.355 238.379,160.816 238.279,161.067 238.275 C 161.791 238.266,160.433 237.513,159.680 237.506 C 159.232 237.502,159.086 237.702,159.242 238.108 M147.032 244.593 C 146.909 244.793,147.043 245.241,147.330 245.588 C 147.772 246.124,147.762 246.190,147.266 246.020 C 146.943 245.910,146.694 245.442,146.711 244.980 C 146.728 244.509,146.503 244.141,146.199 244.141 C 145.901 244.141,145.771 243.956,145.910 243.731 C 146.083 243.451,146.336 243.465,146.710 243.775 C 147.011 244.025,147.156 244.393,147.032 244.593 M132.813 257.004 C 132.813 257.220,132.549 257.296,132.227 257.173 C 131.403 256.857,131.494 257.316,132.345 257.772 C 133.304 258.284,134.075 257.782,133.355 257.114 C 133.057 256.836,132.813 256.787,132.813 257.004 M120.035 265.589 C 119.582 266.314,120.433 267.197,121.019 266.611 C 121.132 266.498,121.009 266.406,120.745 266.406 C 120.482 266.406,120.377 266.228,120.512 266.009 C 120.647 265.791,120.944 265.727,121.171 265.868 C 121.405 266.013,121.510 265.898,121.413 265.606 C 121.139 264.785,120.542 264.777,120.035 265.589 " stroke="none" fill="#5ec0bb" fill-rule="evenodd"></path></g></svg>