<?xml version="1.0" standalone="no"?>
<!DOCTYPE svg PUBLIC "-//W3C//DTD SVG 20010904//EN"
 "http://www.w3.org/TR/2001/REC-SVG-20010904/DTD/svg10.dtd">
<svg version="1.0" xmlns="http://www.w3.org/2000/svg"
 width="300.000000pt" height="87.000000pt" viewBox="0 0 300.000000 87.000000"
 preserveAspectRatio="xMidYMid meet">
<metadata>
Created by potrace 1.10, written by Peter Selinger 2001-2011
</metadata>
<g transform="translate(0.000000,87.000000) scale(0.100000,-0.100000)"
fill="#000000" stroke="none">
<path d="M2960 852 c0 -15 5 -19 20 -15 24 6 21 26 -3 31 -11 2 -17 -3 -17
-16z"/>
<path d="M347 804 c-4 -4 -7 -20 -7 -36 0 -25 3 -28 36 -28 34 0 35 1 32 33
-2 26 -8 33 -28 35 -14 2 -29 0 -33 -4z"/>
<path d="M2804 796 c-33 -24 -44 -66 -28 -104 17 -41 55 -59 89 -44 15 7 27 8
30 2 16 -27 25 -2 25 70 0 76 -1 80 -22 79 -13 0 -34 3 -48 6 -15 4 -33 0 -46
-9z m77 -47 c16 -30 -3 -69 -34 -69 -29 0 -47 17 -47 45 0 45 60 63 81 24z"/>
<path d="M2960 725 c0 -74 2 -85 18 -85 15 0 17 11 17 85 0 74 -2 85 -17 85
-16 0 -18 -11 -18 -85z"/>
<path d="M2371 771 c-8 -5 -12 -19 -9 -35 4 -22 2 -26 -18 -26 -20 0 -24 -5
-24 -29 0 -23 5 -30 21 -33 21 -3 21 -8 20 -125 l-2 -123 36 0 37 0 -4 125 -3
125 33 0 c29 0 32 3 32 30 0 28 -3 30 -34 30 -34 0 -35 1 -29 35 5 32 3 35
-18 35 -13 0 -30 -4 -38 -9z m44 -81 c4 -6 1 -17 -5 -26 -15 -18 -42 0 -33 22
6 16 29 19 38 4z"/>
<path d="M67 753 c-4 -3 -7 -84 -7 -180 l0 -173 115 0 115 0 0 36 0 37 -80 -6
-80 -5 0 149 0 149 -28 0 c-16 0 -32 -3 -35 -7z"/>
<path d="M541 693 c-66 -33 -96 -125 -66 -201 44 -108 187 -120 228 -20 l14
33 5 -33 c3 -25 1 -32 -9 -28 -7 3 -13 -1 -13 -8 0 -25 -41 -65 -73 -71 -19
-4 -51 0 -74 8 -40 14 -41 14 -53 -11 -14 -32 -6 -40 63 -54 50 -11 62 -10
104 8 76 31 87 60 92 237 l3 147 -31 0 c-22 0 -31 -5 -31 -16 0 -13 -5 -12
-34 5 -40 25 -79 26 -125 4z m109 -58 c37 -19 54 -69 39 -112 -33 -95 -159
-70 -159 31 1 43 12 65 45 84 27 15 41 15 75 -3z"/>
<path d="M894 690 c-51 -26 -84 -81 -84 -142 0 -24 6 -53 14 -63 14 -19 15
-19 34 -2 15 14 19 27 15 50 -7 48 12 86 51 102 40 17 70 9 100 -24 28 -30 25
-95 -5 -127 -21 -23 -30 -25 -75 -22 -49 4 -74 -6 -74 -32 0 -6 17 -18 37 -26
41 -18 87 -13 115 13 10 9 18 11 18 5 0 -6 9 -16 21 -22 37 -20 78 37 48 67
-7 7 -10 48 -7 113 l3 102 -36 -5 c-24 -3 -42 0 -51 9 -25 25 -79 27 -124 4z
m182 -248 c-3 -2 -12 -2 -21 2 -13 5 -14 10 -4 28 l12 22 9 -23 c5 -13 6 -26
4 -29z"/>
<path d="M1263 691 c-27 -17 -33 -18 -33 -6 0 9 -10 15 -25 15 l-25 0 0 -150
0 -150 30 0 30 0 0 100 c0 94 2 103 25 125 29 30 58 32 85 5 17 -17 20 -33 20
-125 l0 -105 30 0 30 0 0 100 c0 94 2 103 25 125 29 30 58 32 85 5 17 -17 20
-33 20 -125 l0 -105 30 0 30 0 0 120 c0 116 -1 121 -27 150 -39 44 -95 50
-144 17 -37 -25 -37 -25 -56 -5 -30 29 -91 33 -130 9z"/>
<path d="M1765 696 c-95 -42 -124 -169 -58 -247 50 -59 117 -73 191 -39 43 19
43 20 26 44 -15 24 -17 25 -44 11 -48 -25 -78 -19 -119 23 l-36 37 123 3 123
3 -7 37 c-18 106 -113 167 -199 128z m110 -71 c40 -39 32 -45 -60 -45 -82 0
-85 1 -75 19 28 54 95 66 135 26z"/>
<path d="M2118 691 c-30 -15 -38 -16 -42 -5 -3 8 -17 14 -31 14 l-25 0 0 -150
0 -150 30 0 30 0 0 96 c0 92 1 97 29 125 34 34 59 37 92 10 22 -18 24 -28 27
-125 l4 -106 29 0 29 0 0 106 c0 124 -14 164 -65 188 -43 21 -63 20 -107 -3z"/>
<path d="M2575 698 c-32 -18 -44 -40 -45 -79 0 -42 27 -72 85 -92 48 -17 64
-39 46 -61 -17 -20 -44 -20 -87 0 -33 16 -36 16 -49 -2 -13 -17 -12 -21 10
-41 65 -58 172 -34 191 44 10 40 -14 75 -74 104 -69 33 -79 44 -62 64 16 19
50 19 76 1 17 -13 21 -12 37 1 27 25 21 39 -23 57 -47 19 -77 20 -105 4z"/>
<path d="M340 550 l0 -150 35 0 35 0 0 150 0 150 -35 0 -35 0 0 -150z"/>
<path d="M907 563 c-3 -5 -8 -23 -12 -40 -7 -37 -47 -73 -79 -73 -43 0 -63
-53 -31 -80 25 -21 65 3 65 38 0 38 43 82 81 82 35 0 55 30 39 60 -10 19 -54
28 -63 13z"/>
<path d="M360 200 c0 -28 -1 -29 -25 -18 -39 18 -75 -12 -75 -61 0 -49 16 -62
74 -60 l46 2 0 84 c0 49 -4 83 -10 83 -5 0 -10 -13 -10 -30z m-19 -40 c26 -15
26 -66 -1 -80 -14 -8 -26 -8 -40 0 -26 14 -27 65 -2 79 21 13 20 13 43 1z"/>
<path d="M0 140 l0 -80 45 0 c50 0 74 25 56 58 -5 9 -7 30 -4 46 7 36 -16 56
-64 56 l-33 0 0 -80z m78 33 c3 -20 -1 -23 -27 -23 -27 0 -31 4 -31 26 0 22 4
25 28 22 19 -2 28 -9 30 -25z m6 -60 c8 -20 -17 -43 -46 -43 -13 0 -18 8 -18
30 0 26 3 30 29 30 18 0 31 -6 35 -17z"/>
<path d="M2067 213 c-4 -3 -7 -39 -7 -80 l0 -73 39 0 c22 0 46 3 55 6 19 7 21
55 4 72 -9 9 -9 12 0 12 20 0 14 48 -7 60 -22 11 -74 14 -84 3z m78 -38 c0
-15 -8 -21 -32 -23 -30 -3 -33 -1 -33 23 0 24 3 26 33 23 24 -2 32 -8 32 -23z
m3 -71 c2 -16 -4 -23 -23 -28 -33 -9 -45 -1 -45 30 0 22 4 25 33 22 24 -2 33
-8 35 -24z"/>
<path d="M1235 201 c3 -5 1 -13 -5 -16 -7 -5 -8 -11 -1 -19 5 -6 11 -32 13
-56 2 -38 7 -46 26 -48 12 -2 22 1 22 7 0 6 -7 11 -15 11 -11 0 -15 12 -15 46
0 25 4 43 9 39 5 -3 12 -1 16 5 3 5 -1 10 -9 10 -9 0 -16 7 -16 15 0 8 -7 15
-16 15 -8 0 -13 -4 -9 -9z"/>
<path d="M165 180 c-3 -5 -12 -7 -20 -3 -12 4 -15 -6 -15 -56 0 -34 4 -61 10
-61 6 0 10 21 10 46 0 37 4 47 20 51 11 3 20 12 20 19 0 16 -16 19 -25 4z"/>
<path d="M431 171 c-24 -24 -27 -68 -8 -95 10 -14 23 -17 50 -14 30 3 37 1 37
-14 0 -31 -34 -40 -63 -18 -14 12 -28 16 -31 11 -8 -12 33 -41 57 -41 48 0 57
16 57 100 0 68 -2 79 -17 79 -10 -1 -28 2 -40 6 -15 5 -27 1 -42 -14z m60 -11
c26 -15 26 -66 -1 -80 -14 -8 -26 -8 -40 0 -26 14 -27 65 -2 79 21 13 20 13
43 1z"/>
<path d="M643 183 c-18 -4 -22 -12 -25 -64 -2 -42 1 -59 10 -59 8 0 12 16 12
49 0 44 10 61 35 61 16 0 35 -38 35 -71 0 -21 5 -39 10 -39 19 0 11 89 -10
110 -20 20 -26 21 -67 13z"/>
<path d="M770 170 c-47 -47 -10 -118 55 -107 30 5 36 3 33 -10 -2 -9 -12 -22
-24 -29 -18 -13 -24 -12 -47 7 -22 16 -27 18 -27 5 0 -36 69 -47 100 -16 16
16 20 33 20 91 0 65 -2 70 -19 64 -11 -3 -22 -1 -26 5 -10 16 -43 12 -65 -10z
m72 -17 c10 -9 18 -23 18 -31 0 -19 -29 -52 -46 -52 -19 0 -44 29 -44 50 0 20
25 50 42 50 6 0 20 -7 30 -17z"/>
<path d="M986 166 c-14 -14 -26 -34 -26 -44 0 -28 31 -63 55 -62 11 0 32 1 48
1 26 1 27 3 27 59 0 49 -3 59 -17 59 -10 -1 -28 2 -40 6 -16 5 -29 0 -47 -19z
m68 -12 c9 -8 16 -24 16 -34 0 -20 -25 -50 -42 -50 -17 0 -48 31 -48 48 0 19
29 52 46 52 7 0 20 -7 28 -16z"/>
<path d="M1329 172 c-25 -21 -30 -71 -9 -96 16 -21 74 -20 94 0 17 16 21 61 8
80 -8 13 -46 34 -60 34 -5 0 -20 -8 -33 -18z m62 -12 c23 -13 25 -53 3 -74
-18 -19 -20 -19 -45 -6 -25 14 -26 65 -1 79 21 13 20 13 43 1z"/>
<path d="M1507 184 c-3 -3 6 -31 19 -61 21 -46 23 -61 14 -86 -12 -36 -12 -37
-1 -37 9 0 81 162 81 182 0 23 -27 -14 -39 -52 -14 -48 -23 -46 -41 10 -14 42
-23 54 -33 44z"/>
<path d="M1655 165 c-29 -28 -31 -51 -9 -83 32 -46 114 -17 114 41 0 22 -43
67 -65 67 -9 0 -27 -11 -40 -25z m65 -15 c11 -11 20 -23 20 -28 0 -15 -31 -52
-45 -52 -20 0 -45 28 -45 50 0 19 25 50 41 50 5 0 18 -9 29 -20z"/>
<path d="M1780 136 c0 -57 13 -78 49 -77 66 2 61 -3 61 69 0 73 -17 76 -22 3
-6 -88 -68 -79 -68 10 0 27 -4 49 -10 49 -5 0 -10 -24 -10 -54z"/>
<path d="M1960 180 c-7 -4 -19 -6 -27 -3 -10 4 -13 -9 -13 -56 0 -48 3 -61 15
-61 11 0 14 7 9 25 -8 34 3 75 21 75 17 0 29 16 17 24 -4 2 -14 1 -22 -4z"/>
<path d="M2200 136 c0 -48 3 -58 24 -71 17 -12 30 -14 43 -7 10 5 24 7 31 5
15 -6 17 112 2 122 -6 4 -10 -13 -10 -44 0 -41 -4 -52 -21 -61 -31 -17 -49 4
-49 56 0 23 -4 46 -10 49 -6 4 -10 -15 -10 -49z"/>
<path d="M2358 179 c-30 -17 -22 -48 17 -65 19 -8 35 -19 35 -24 0 -19 -30
-23 -49 -6 -20 18 -37 10 -20 -11 12 -14 46 -17 73 -7 29 11 18 44 -19 60 -19
8 -35 18 -35 24 0 18 22 22 39 6 31 -28 45 -12 15 18 -18 18 -32 20 -56 5z"/>
<path d="M2541 181 c-8 -5 -19 -7 -25 -5 -7 3 -12 -17 -14 -56 -2 -48 1 -60
13 -60 12 0 15 11 13 46 -1 42 10 63 34 64 19 0 38 -35 38 -71 0 -21 5 -39 10
-39 6 0 10 20 10 45 0 64 -39 101 -79 76z"/>
<path d="M2672 178 c-43 -21 -42 -96 3 -116 26 -12 67 -3 80 18 13 20 -4 24
-25 5 -17 -15 -24 -16 -45 -7 -40 18 -29 32 25 32 43 0 50 3 50 20 0 23 -33
60 -52 59 -7 0 -23 -5 -36 -11z m49 -18 c31 -17 22 -30 -21 -30 -42 0 -52 12
-22 29 21 13 20 13 43 1z"/>
<path d="M2796 174 c-9 -8 -16 -19 -16 -24 0 -16 31 -40 51 -40 14 0 19 -6 17
-17 -4 -23 -23 -27 -41 -8 -19 19 -27 19 -27 2 0 -35 80 -38 93 -4 7 18 -7 31
-46 46 -15 6 -27 15 -27 21 0 20 31 23 50 5 18 -16 20 -16 20 -2 0 16 -28 37
-49 37 -5 0 -17 -7 -25 -16z"/>
<path d="M2910 172 c-28 -23 -20 -39 26 -58 19 -8 34 -19 34 -24 0 -19 -31
-23 -49 -6 -11 10 -22 13 -25 8 -17 -27 68 -48 85 -21 16 24 5 44 -29 54 -32
9 -42 28 -21 40 5 4 18 0 28 -9 31 -28 45 -12 15 18 -20 21 -37 20 -64 -2z"/>
<path d="M210 120 c0 -33 4 -60 10 -60 6 0 10 27 10 60 0 33 -4 60 -10 60 -6
0 -10 -27 -10 -60z"/>
<path d="M560 120 c0 -41 4 -60 13 -60 8 0 11 17 9 60 -5 78 -22 78 -22 0z"/>
<path d="M1120 120 c0 -33 4 -60 10 -60 6 0 10 27 10 60 0 33 -4 60 -10 60 -6
0 -10 -27 -10 -60z"/>
<path d="M2454 120 c1 -41 5 -60 14 -60 8 0 12 19 12 60 0 44 -4 60 -13 60
-10 0 -14 -16 -13 -60z"/>
</g>
</svg>
